<svg width="40" height="40" viewBox="0 0 40 40" fill="none" xmlns="http://www.w3.org/2000/svg">
<path d="M32.7445 7.5H32.7344L29.9961 7.52578L10 7.5H9.9875L7.11719 7.52578C5.22891 7.52969 3.75 9.06797 3.75 11.0313V29.0211C3.75 30.9859 5.23437 32.5258 7.125 32.5258H7.13672L10.0047 32.5L29.9984 32.5258H30.0117L32.7516 32.5C33.6798 32.4973 34.5691 32.1269 35.2248 31.4699C35.8806 30.8129 36.2492 29.9228 36.25 28.9945V11.0055C36.249 10.0761 35.8793 9.18505 35.2221 8.52787C34.565 7.87069 33.6739 7.50103 32.7445 7.5ZM11.25 25C11.25 25.3315 11.1183 25.6495 10.8839 25.8839C10.6495 26.1183 10.3315 26.25 10 26.25C9.66848 26.25 9.35054 26.1183 9.11612 25.8839C8.8817 25.6495 8.75 25.3315 8.75 25V15C8.75 14.6685 8.8817 14.3505 9.11612 14.1161C9.35054 13.8817 9.66848 13.75 10 13.75C10.3315 13.75 10.6495 13.8817 10.8839 14.1161C11.1183 14.3505 11.25 14.6685 11.25 15V25ZM16.25 27.5C16.25 27.8315 16.1183 28.1495 15.8839 28.3839C15.6495 28.6183 15.3315 28.75 15 28.75C14.6685 28.75 14.3505 28.6183 14.1161 28.3839C13.8817 28.1495 13.75 27.8315 13.75 27.5V12.5C13.75 12.1685 13.8817 11.8505 14.1161 11.6161C14.3505 11.3817 14.6685 11.25 15 11.25C15.3315 11.25 15.6495 11.3817 15.8839 11.6161C16.1183 11.8505 16.25 12.1685 16.25 12.5V27.5ZM21.25 26.25C21.25 26.5815 21.1183 26.8995 20.8839 27.1339C20.6495 27.3683 20.3315 27.5 20 27.5C19.6685 27.5 19.3505 27.3683 19.1161 27.1339C18.8817 26.8995 18.75 26.5815 18.75 26.25V13.75C18.75 13.4185 18.8817 13.1005 19.1161 12.8661C19.3505 12.6317 19.6685 12.5 20 12.5C20.3315 12.5 20.6495 12.6317 20.8839 12.8661C21.1183 13.1005 21.25 13.4185 21.25 13.75V26.25ZM26.25 27.5C26.25 27.8315 26.1183 28.1495 25.8839 28.3839C25.6495 28.6183 25.3315 28.75 25 28.75C24.6685 28.75 24.3505 28.6183 24.1161 28.3839C23.8817 28.1495 23.75 27.8315 23.75 27.5V12.5C23.75 12.1685 23.8817 11.8505 24.1161 11.6161C24.3505 11.3817 24.6685 11.25 25 11.25C25.3315 11.25 25.6495 11.3817 25.8839 11.6161C26.1183 11.8505 26.25 12.1685 26.25 12.5V27.5ZM31.25 25C31.25 25.3315 31.1183 25.6495 30.8839 25.8839C30.6495 26.1183 30.3315 26.25 30 26.25C29.6685 26.25 29.3505 26.1183 29.1161 25.8839C28.8817 25.6495 28.75 25.3315 28.75 25V15C28.75 14.6685 28.8817 14.3505 29.1161 14.1161C29.3505 13.8817 29.6685 13.75 30 13.75C30.3315 13.75 30.6495 13.8817 30.8839 14.1161C31.1183 14.3505 31.25 14.6685 31.25 15V25Z" fill="white"/>
</svg>
