<svg width="40" height="40" viewBox="0 0 40 40" fill="none" xmlns="http://www.w3.org/2000/svg">
<path d="M34.8093 32.4479C32.9685 29.0988 30.094 26.4894 26.6487 25.0395C28.362 23.7074 29.6276 21.8504 30.2662 19.7313C30.9048 17.6123 30.884 15.3387 30.2067 13.2326C29.5294 11.1265 28.2301 9.29465 26.4927 7.99658C24.7552 6.69851 22.6678 6 20.5262 6C18.3845 6 16.2971 6.69851 14.5597 7.99658C12.8223 9.29465 11.5229 11.1265 10.8456 13.2326C10.1684 15.3387 10.1476 17.6123 10.7861 19.7313C11.4247 21.8504 12.6903 23.7074 14.4037 25.0395C10.9583 26.4894 8.08384 29.0988 6.24301 32.4479C6.12894 32.638 6.05292 32.8499 6.01945 33.0711C5.98599 33.2923 5.99577 33.5182 6.04822 33.7354C6.10066 33.9526 6.19469 34.1566 6.32473 34.3354C6.45477 34.5142 6.61815 34.664 6.80517 34.776C6.99219 34.888 7.19902 34.9599 7.41337 34.9874C7.62772 35.0149 7.84522 34.9974 8.05293 34.936C8.26064 34.8746 8.45432 34.7706 8.62247 34.63C8.79061 34.4895 8.92978 34.3154 9.0317 34.118C11.4646 29.759 15.7611 27.1591 20.5262 27.1591C25.2912 27.1591 29.5877 29.7603 32.0206 34.118C32.2415 34.4862 32.5919 34.7509 32.9976 34.8561C33.4033 34.9614 33.8327 34.899 34.1948 34.6821C34.557 34.4652 34.8236 34.1108 34.9383 33.6939C35.0529 33.2769 35.0067 32.8301 34.8093 32.4479ZM13.5444 16.5817C13.5444 15.1503 13.9538 13.751 14.721 12.5609C15.4882 11.3707 16.5786 10.4431 17.8543 9.89533C19.1301 9.34756 20.5339 9.20424 21.8882 9.48349C23.2426 9.76274 24.4866 10.452 25.463 11.4642C26.4395 12.4763 27.1044 13.7659 27.3738 15.1697C27.6432 16.5736 27.5049 18.0288 26.9765 19.3512C26.4481 20.6736 25.5532 21.8039 24.405 22.5992C23.2569 23.3944 21.907 23.8189 20.5262 23.8189C18.6751 23.8167 16.9005 23.0535 15.5916 21.6967C14.2828 20.3399 13.5465 18.5004 13.5444 16.5817Z" fill="white"/>
</svg>
