<svg width="40" height="40" viewBox="0 0 40 40" fill="none" xmlns="http://www.w3.org/2000/svg">
<path d="M27.5934 21.5099L26.835 22.2649C26.835 22.2649 25.03 24.0582 20.105 19.1616C15.18 14.2649 16.985 12.4716 16.985 12.4716L17.4617 11.9949C18.64 10.8249 18.7517 8.94489 17.7234 7.57155L15.6234 4.76655C14.35 3.06655 11.8917 2.84155 10.4334 4.29155L7.81671 6.89155C7.09504 7.61155 6.61171 8.54155 6.67004 9.57488C6.82004 12.2199 8.01671 17.9082 14.69 24.5449C21.7684 31.5816 28.41 31.8616 31.125 31.6082C31.985 31.5282 32.7317 31.0916 33.3334 30.4916L35.7 28.1382C37.3 26.5499 36.85 23.8249 34.8034 22.7132L31.62 20.9816C30.2767 20.2532 28.6434 20.4666 27.5934 21.5099Z" fill="white"/>
</svg>
