<svg width="40" height="40" viewBox="0 0 40 40" fill="none" xmlns="http://www.w3.org/2000/svg">
<path d="M36.661 10.5519C36.6499 7.63519 35.726 6.70458 32.8429 6.68188C28.5907 6.64783 24.3496 6.68188 20.0974 6.68188C15.7561 6.68188 11.4148 6.71593 7.07351 6.67053C4.54666 6.64783 3.3222 7.74868 3.33333 10.393C3.37785 17.7471 3.34446 25.0898 3.34446 32.4439C3.34446 33.3858 3.23314 34.4072 4.30177 34.8612C5.39265 35.3265 6.08281 34.5321 6.63938 33.8171C8.16439 31.831 10.1681 31.4906 12.5168 31.536C19.2625 31.6608 25.997 31.5927 32.7427 31.57C35.815 31.57 36.6499 30.6848 36.6499 27.5185C36.6721 21.8667 36.6721 16.215 36.6499 10.5632L36.661 10.5519ZM12.2385 21.81C10.8026 21.6511 9.91204 20.641 10.0567 19.0749C10.1903 17.6563 11.1365 16.8618 12.4945 16.9186C13.9973 16.9867 14.732 18.0308 14.9101 19.4834C14.5761 20.9588 13.7524 21.9802 12.2385 21.81ZM20.5649 21.7986C19.2959 21.7759 18.2941 21.0269 18.2495 19.5515C18.1939 18.0421 18.9063 16.9753 20.4424 16.9186C21.9229 16.8618 22.78 17.7471 22.9025 19.2905C22.858 20.868 22.0342 21.81 20.5649 21.7986ZM28.5573 21.878C27.1102 21.5489 26.1084 20.6978 26.2753 19.1657C26.4312 17.7017 27.4219 16.7937 28.9469 16.9299C30.3383 17.0548 31.1175 18.0308 31.073 19.404C31.0173 20.9474 29.9933 21.6851 28.5573 21.878Z" fill="white"/>
</svg>
