<svg width="40" height="40" viewBox="0 0 40 40" fill="none" xmlns="http://www.w3.org/2000/svg">
<path d="M32.5625 16.1648V29.5625C32.5625 30.7469 32.092 31.8829 31.2545 32.7204C30.4169 33.5579 29.281 34.0284 28.0966 34.0284H12.4659C11.2815 34.0284 10.1456 33.5579 9.30803 32.7204C8.47051 31.8829 8 30.7469 8 29.5625V9.46591C8 7.00966 10.0097 5 12.4659 5H21.4201" stroke="white" stroke-width="2.3" stroke-linecap="round" stroke-linejoin="round"/>
<path d="M14.699 27.3295H25.8637M14.699 20.6307H25.8637M14.699 13.9318H16.9319M21.3978 5L32.5626 16.1648H23.6308C23.0386 16.1648 22.4706 15.9295 22.0519 15.5108C21.6331 15.092 21.3978 14.524 21.3978 13.9318V5Z" stroke="white" stroke-width="2.3" stroke-linecap="round" stroke-linejoin="round"/>
</svg>
