<svg width="40" height="40" viewBox="0 0 40 40" fill="none" xmlns="http://www.w3.org/2000/svg">
<path d="M28.8383 15.8732L34.1416 21.1766C35.0022 22.0257 35.6863 23.0366 36.1546 24.1512C36.6228 25.2658 36.866 26.462 36.87 27.6709C36.8741 28.8799 36.6389 30.0777 36.1782 31.1954C35.7174 32.3131 35.0401 33.3286 34.1852 34.1835C33.3304 35.0383 32.3148 35.7156 31.1971 36.1764C30.0794 36.6372 28.8816 36.8723 27.6727 36.8683C26.4638 36.8642 25.2676 36.6211 24.153 36.1528C23.0384 35.6846 22.0274 35.0005 21.1783 34.1399L19.4116 32.3732C19.1728 32.1427 18.9822 31.867 18.851 31.562C18.7199 31.2571 18.6507 30.929 18.6477 30.5971C18.6447 30.2652 18.7078 29.9359 18.8333 29.6286C18.9589 29.3213 19.1444 29.0421 19.379 28.8073C19.6136 28.5724 19.8926 28.3867 20.1998 28.2608C20.507 28.135 20.8362 28.0716 21.1681 28.0743C21.5001 28.077 21.8282 28.1458 22.1332 28.2767C22.4383 28.4076 22.7142 28.5979 22.945 28.8366L24.715 30.6049C25.4977 31.3805 26.5557 31.8146 27.6576 31.812C28.7595 31.8094 29.8155 31.3705 30.5946 30.5912C31.3737 29.8119 31.8123 28.7558 31.8146 27.6539C31.8168 26.552 31.3825 25.494 30.6066 24.7116L25.3033 19.4082C24.7301 18.8348 24.002 18.441 23.2083 18.2752C22.4146 18.1094 21.5898 18.1788 20.835 18.4749C20.5661 18.5816 20.3139 18.6905 20.0783 18.8016L19.305 19.1632C18.2716 19.6299 17.4766 19.8299 16.465 18.8199C15.0116 17.3666 15.3883 16.0249 17.16 14.8032C18.9248 13.5888 21.0593 13.0309 23.1926 13.2264C25.326 13.4218 27.3235 14.3583 28.8383 15.8732ZM18.8216 5.85656L20.5883 7.62323C21.0439 8.09452 21.2962 8.72591 21.2908 9.3814C21.2855 10.0369 21.0228 10.6641 20.5595 11.1278C20.0962 11.5915 19.4693 11.8548 18.8138 11.8608C18.1583 11.8668 17.5267 11.6151 17.055 11.1599L15.2866 9.39323C14.9024 8.99516 14.4427 8.67761 13.9344 8.45909C13.4261 8.24058 12.8794 8.12548 12.3262 8.12052C11.7729 8.11556 11.2242 8.22083 10.7121 8.43018C10.2 8.63954 9.73468 8.9488 9.34335 9.33991C8.95202 9.73102 8.64251 10.1961 8.43286 10.7082C8.22321 11.2202 8.11763 11.7688 8.12228 12.322C8.12693 12.8753 8.24172 13.4221 8.45994 13.9305C8.67817 14.4389 8.99546 14.8988 9.39331 15.2832L14.6966 20.5866C15.2699 21.16 15.9979 21.5538 16.7916 21.7196C17.5853 21.8854 18.4101 21.816 19.165 21.5199C19.4339 21.4132 19.6861 21.3043 19.9216 21.1932L20.695 20.8316C21.7283 20.3649 22.525 20.1649 23.535 21.1749C24.9883 22.6282 24.6116 23.9699 22.84 25.1916C21.0751 26.406 18.9407 26.9639 16.8073 26.7684C14.674 26.5729 12.6764 25.6365 11.1616 24.1216L5.85831 18.8182C4.99775 17.9691 4.31364 16.9582 3.84539 15.8436C3.37714 14.729 3.13398 13.5328 3.12993 12.3238C3.12588 11.1149 3.36102 9.91709 3.82179 8.79939C4.28256 7.68169 4.95988 6.66618 5.81474 5.81132C6.6696 4.95646 7.68511 4.27915 8.80281 3.81837C9.92051 3.3576 11.1183 3.12247 12.3273 3.12652C13.5362 3.13057 14.7324 3.37372 15.847 3.84197C16.9616 4.31022 17.9725 4.99599 18.8216 5.85656Z" fill="white"/>
</svg>
