<svg width="40" height="40" viewBox="0 0 40 40" fill="none" xmlns="http://www.w3.org/2000/svg">
<path d="M8.3714 18.0109C11.3907 14.9078 15.4864 13 20.0022 13C24.518 13 28.6137 14.9078 31.633 18.0109C32.1931 18.5828 33.077 18.5641 33.6108 17.9687C34.1447 17.3734 34.1272 16.4219 33.5714 15.85C30.0533 12.2266 25.2706 10 20.0022 10C14.7338 10 9.95105 12.2266 6.42856 15.8453C5.87283 16.4219 5.85533 17.3687 6.38917 17.9687C6.92302 18.5687 7.8113 18.5875 8.36702 18.0109H8.3714ZM20.0022 20.5C22.4876 20.5 24.7543 21.4891 26.4871 23.125C27.0691 23.6734 27.953 23.6125 28.4649 22.9938C28.9769 22.375 28.92 21.4234 28.3424 20.875C26.1195 18.775 23.1965 17.5 20.0022 17.5C16.8079 17.5 13.8849 18.775 11.6664 20.875C11.0844 21.4234 11.0319 22.3703 11.5438 22.9938C12.0558 23.6172 12.9397 23.6734 13.5217 23.125C15.2501 21.4891 17.5168 20.5 20.0066 20.5H20.0022ZM22.8027 28C22.8027 27.2044 22.5076 26.4413 21.9824 25.8787C21.4572 25.3161 20.7449 25 20.0022 25C19.2595 25 18.5471 25.3161 18.0219 25.8787C17.4967 26.4413 17.2017 27.2044 17.2017 28C17.2017 28.7956 17.4967 29.5587 18.0219 30.1213C18.5471 30.6839 19.2595 31 20.0022 31C20.7449 31 21.4572 30.6839 21.9824 30.1213C22.5076 29.5587 22.8027 28.7956 22.8027 28Z" fill="white"/>
</svg>
